<?xml version="1.0" encoding="utf-8"?>
<!-- Generator: Adobe Illustrator 24.1.0, SVG Export Plug-In . SVG Version: 6.00 Build 0)  -->
<svg version="1.1" id="Capa_1" xmlns="http://www.w3.org/2000/svg" xmlns:xlink="http://www.w3.org/1999/xlink" x="0px" y="0px"
	 viewBox="0 0 508 157.5" style="enable-background:new 0 0 508 157.5;" xml:space="preserve">
<style type="text/css">
	.st0{fill:#3C58BF;}
	.st1{fill:#293688;}
	.st2{fill:#FFBC00;}
	.st3{fill:#F7981D;}
	.st4{fill:#ED7C00;}
	.st5{fill:#051244;}
</style>
<polygon class="st0" points="186.8,151.5 212.4,7.5 252.4,7.5 227.6,151.5 "/>
<polygon class="st1" points="186.8,151.5 219.6,7.5 252.4,7.5 227.6,151.5 "/>
<path class="st0" d="M372.4,9.1c-8-3.2-20.8-6.4-36.8-6.4c-40,0-68.8,20-68.8,48.8c0,21.6,20,32.8,36,40s20.8,12,20.8,18.4
	c0,9.6-12.8,14.4-24,14.4c-16,0-24.8-2.4-38.4-8l-5.6-2.4l-5.6,32.8c9.6,4,27.2,8,45.6,8c42.4,0,70.4-20,70.4-50.4
	c0-16.8-10.4-29.6-34.4-40c-14.4-7.2-23.2-11.2-23.2-18.4c0-6.4,7.2-12.8,23.2-12.8c13.6,0,23.2,2.4,30.4,5.6l4,1.6L372.4,9.1
	L372.4,9.1z"/>
<path class="st1" d="M372.4,9.1c-8-3.2-20.8-6.4-36.8-6.4c-40,0-61.6,20-61.6,48.8c0,21.6,12.8,32.8,28.8,40s20.8,12,20.8,18.4
	c0,9.6-12.8,14.4-24,14.4c-16,0-24.8-2.4-38.4-8l-5.6-2.4l-5.6,32.8c9.6,4,27.2,8,45.6,8c42.4,0,70.4-20,70.4-50.4
	c0-16.8-10.4-29.6-34.4-40c-14.4-7.2-23.2-11.2-23.2-18.4c0-6.4,7.2-12.8,23.2-12.8c13.6,0,23.2,2.4,30.4,5.6l4,1.6L372.4,9.1
	L372.4,9.1z"/>
<path class="st0" d="M441.2,7.5c-9.6,0-16.8,0.8-20.8,10.4l-60,133.6h43.2l8-24h51.2l4.8,24H506l-33.6-144H441.2z M422.8,103.5
	c2.4-7.2,16-42.4,16-42.4s3.2-8.8,5.6-14.4l2.4,13.6c0,0,8,36,9.6,44h-33.6V103.5z"/>
<path class="st1" d="M450.8,7.5c-9.6,0-16.8,0.8-20.8,10.4l-69.6,133.6h43.2l8-24h51.2l4.8,24H506l-33.6-144H450.8z M422.8,103.5
	c3.2-8,16-42.4,16-42.4s3.2-8.8,5.6-14.4l2.4,13.6c0,0,8,36,9.6,44h-33.6V103.5z"/>
<path class="st0" d="M113.2,108.3l-4-20.8c-7.2-24-30.4-50.4-56-63.2l36,128h43.2l64.8-144H154L113.2,108.3z"/>
<path class="st1" d="M113.2,108.3l-4-20.8c-7.2-24-30.4-50.4-56-63.2l36,128h43.2l64.8-144H162L113.2,108.3z"/>
<path class="st2" d="M2,7.5l7.2,1.6c51.2,12,86.4,42.4,100,78.4l-14.4-68c-2.4-9.6-9.6-12-18.4-12H2z"/>
<path class="st3" d="M2,7.5L2,7.5c51.2,12,93.6,43.2,107.2,79.2L95.6,29.9c-2.4-9.6-10.4-15.2-19.2-15.2L2,7.5z"/>
<path class="st4" d="M2,7.5L2,7.5c51.2,12,93.6,43.2,107.2,79.2l-9.6-31.2c-2.4-9.6-5.6-19.2-16.8-23.2L2,7.5z"/>
<g>
	<path class="st5" d="M153.2,103.5L126,76.3l-12.8,30.4l-3.2-20c-7.2-24-30.4-50.4-56-63.2l36,128h43.2L153.2,103.5z"/>
	<polygon class="st5" points="227.6,151.5 193.2,116.3 186.8,151.5 	"/>
	<path class="st5" d="M319.6,101.9L319.6,101.9c3.2,3.2,4.8,5.6,4,8.8c0,9.6-12.8,14.4-24,14.4c-16,0-24.8-2.4-38.4-8l-5.6-2.4
		l-5.6,32.8c9.6,4,27.2,8,45.6,8c25.6,0,46.4-7.2,58.4-20L319.6,101.9z"/>
	<path class="st5" d="M366,151.5h37.6l8-24h51.2l4.8,24H506l-13.6-58.4l-48-46.4l2.4,12.8c0,0,8,36,9.6,44h-33.6
		c3.2-8,16-42.4,16-42.4s3.2-8.8,5.6-14.4"/>
</g>
</svg>
